<?xml version="1.0" standalone="no"?>
<!DOCTYPE svg PUBLIC "-//W3C//DTD SVG 20010904//EN"
 "http://www.w3.org/TR/2001/REC-SVG-20010904/DTD/svg10.dtd">
<svg version="1.0" xmlns="http://www.w3.org/2000/svg"
 width="260.000000pt" height="260.000000pt" viewBox="0 0 260.000000 260.000000"
 preserveAspectRatio="xMidYMid meet">
<metadata>
Created by potrace 1.11, written by Peter Selinger 2001-2013
</metadata>
<g transform="translate(0.000000,260.000000) scale(0.100000,-0.100000)"
fill="#000000" stroke="none">
<path d="M0 1300 l0 -1300 215 0 215 0 0 115 0 115 215 0 215 0 0 -115 0 -115
220 0 220 0 0 115 0 115 215 0 215 0 0 -115 0 -115 435 0 435 0 0 1300 0 1300
-435 0 -435 0 0 -115 0 -115 -215 0 -215 0 0 115 0 115 -220 0 -220 0 0 -115
0 -115 -215 0 -215 0 0 115 0 115 -215 0 -215 0 0 -1300z m2560 90 l0 -580
-1260 0 -1260 0 0 580 0 580 1260 0 1260 0 0 -580z"/>
<path d="M2078 1845 c-145 -40 -218 -136 -218 -287 0 -118 42 -173 180 -235
101 -46 130 -75 130 -128 0 -44 -18 -68 -70 -96 -40 -20 -174 -15 -244 10 -33
11 -61 20 -62 18 -10 -11 -45 -170 -38 -176 32 -29 219 -52 326 -40 201 23
310 132 311 308 0 130 -38 183 -185 257 -48 24 -97 53 -108 64 -29 29 -26 81
6 111 22 21 37 24 112 27 66 3 101 -1 144 -15 l56 -19 25 85 c14 47 21 90 17
95 -31 33 -288 47 -382 21z"/>
<path d="M290 1834 c0 -6 -152 -819 -166 -886 l-6 -28 101 0 c96 0 101 1 106
23 3 12 29 157 59 322 l53 300 16 -55 c13 -44 103 -379 148 -553 l10 -38 136
3 137 3 83 440 c45 242 82 448 83 458 0 15 -11 17 -99 17 -94 0 -99 -1 -104
-22 -3 -13 -29 -157 -58 -322 -30 -171 -56 -290 -59 -280 -4 11 -42 155 -86
322 l-78 302 -138 0 c-76 0 -138 -3 -138 -6z"/>
<path d="M1131 1788 c-6 -29 -42 -226 -81 -438 -38 -212 -72 -395 -75 -407 -5
-23 -4 -23 104 -23 l109 0 26 143 c15 78 32 168 38 200 l11 57 128 0 c71 0
129 -4 129 -8 0 -8 -56 -319 -66 -364 l-6 -28 110 0 109 0 22 118 c12 64 50
271 85 460 l62 342 -107 0 -107 0 -10 -47 c-6 -27 -20 -105 -33 -175 l-22
-128 -132 0 -132 0 28 153 c16 83 30 162 32 175 4 22 3 22 -104 22 l-108 0
-10 -52z"/>
</g>
</svg>
